<?xml version="1.0" encoding="UTF-8" standalone="no"?>
<!DOCTYPE svg PUBLIC "-//W3C//DTD SVG 1.1//EN" "http://www.w3.org/Graphics/SVG/1.1/DTD/svg11.dtd">
<!-- Generated by Microsoft Visio, SVG Export GetTime.svg Get Time -->
<svg xmlns="http://www.w3.org/2000/svg" xmlns:xlink="http://www.w3.org/1999/xlink" xmlns:ev="http://www.w3.org/2001/xml-events"
		xmlns:v="http://schemas.microsoft.com/visio/2003/SVGExtensions/" width="10.7021in" height="4.59102in"
		viewBox="0 0 770.55 330.553" xml:space="preserve" color-interpolation-filters="sRGB" class="st12">
	<v:documentProperties v:langID="1033" v:viewMarkup="false">
		<v:userDefs>
			<v:ud v:nameU="msvSubprocessMaster" v:prompt="" v:val="VT4(Rectangle)"/>
			<v:ud v:nameU="msvNoAutoConnect" v:val="VT0(1):26"/>
		</v:userDefs>
	</v:documentProperties>

	<style type="text/css">
	<![CDATA[
		.st1 {fill:#4672c4;stroke:#c7c8c8;stroke-width:0.25}
		.st2 {fill:#feffff;font-family:Calibri;font-size:0.833336em}
		.st3 {font-size:1em}
		.st4 {fill:#70ad47;stroke:#c7c8c8;stroke-width:0.25}
		.st5 {baseline-shift:32.4947%;font-size:0.649894em}
		.st6 {marker-end:url(#mrkr4-20);stroke:#4672c4;stroke-linecap:round;stroke-linejoin:round;stroke-width:1}
		.st7 {fill:#4672c4;fill-opacity:1;stroke:#4672c4;stroke-opacity:1;stroke-width:0.28409090909091}
		.st8 {marker-end:url(#mrkr4-35);stroke:#4672c4;stroke-linecap:round;stroke-linejoin:round;stroke-width:1}
		.st9 {fill:#fec000;stroke:#c7c8c8;stroke-width:0.25}
		.st10 {fill:none;stroke:none;stroke-width:0.25}
		.st11 {fill:#4672c4;font-family:Calibri;font-size:0.833336em}
		.st12 {fill:none;fill-rule:evenodd;font-size:12px;overflow:visible;stroke-linecap:square;stroke-miterlimit:3}
	]]>
	</style>

	<defs id="Markers">
		<g id="lend4">
			<path d="M 2 1 L 0 0 L 2 -1 L 2 1 " style="stroke:none"/>
		</g>
		<marker id="mrkr4-20" class="st7" v:arrowType="4" v:arrowSize="2" v:setback="6.68" refX="-6.68" orient="auto"
				markerUnits="strokeWidth" overflow="visible">
			<use xlink:href="#lend4" transform="scale(-3.52,-3.52) "/>
		</marker>
		<marker id="mrkr4-35" class="st7" v:arrowType="4" v:arrowSize="2" v:setback="7.04" refX="-7.04" orient="auto"
				markerUnits="strokeWidth" overflow="visible">
			<use xlink:href="#lend4" transform="scale(-3.52,-3.52) "/>
		</marker>
	</defs>
	<g v:mID="4" v:index="2" v:groupContext="foregroundPage">
		<v:userDefs>
			<v:ud v:nameU="msvThemeOrder" v:val="VT0(0):26"/>
		</v:userDefs>
		<title>Get Time</title>
		<v:pageProperties v:drawingScale="1" v:pageScale="1" v:drawingUnits="0" v:shadowOffsetX="9" v:shadowOffsetY="-9"/>
		<v:layer v:name="Connector" v:index="0"/>
		<g id="shape1-1" v:mID="1" v:groupContext="shape" transform="translate(644.3,-79.6741)">
			<title>Rectangle</title>
			<desc>Backend Service Go App</desc>
			<v:userDefs>
				<v:ud v:nameU="visVersion" v:val="VT0(15):26"/>
				<v:ud v:nameU="visMasterStencil" v:prompt="" v:val="VT4(Basic_U.vssx)"/>
			</v:userDefs>
			<v:textBlock v:margins="rect(4,4,4,4)"/>
			<v:textRect cx="54" cy="294.553" width="108" height="72"/>
			<rect x="0" y="258.553" width="108" height="72" class="st1"/>
			<text x="21.09" y="291.55" class="st2" v:langID="1033"><v:paragraph v:horizAlign="1"/><v:tabList/>Backend Service<v:lf/><tspan
						x="38.93" dy="1.2em" class="st3">Go App</tspan></text>		</g>
		<g id="shape2-5" v:mID="2" v:groupContext="shape" transform="translate(261.25,-79.8242)">
			<title>Rectangle.2</title>
			<desc>Frontend Service Go App</desc>
			<v:userDefs>
				<v:ud v:nameU="visVersion" v:val="VT0(15):26"/>
				<v:ud v:nameU="visMasterStencil" v:prompt="" v:val="VT4(Basic_U.vssx)"/>
			</v:userDefs>
			<v:textBlock v:margins="rect(4,4,4,4)"/>
			<v:textRect cx="54" cy="294.553" width="108" height="72"/>
			<rect x="0" y="258.553" width="108" height="72" class="st1"/>
			<text x="19.61" y="291.55" class="st2" v:langID="1033"><v:paragraph v:horizAlign="1"/><v:tabList/>Frontend Service<v:lf/><tspan
						x="38.93" dy="1.2em" class="st3">Go App</tspan></text>		</g>
		<g id="shape3-9" v:mID="3" v:groupContext="shape" transform="translate(447.85,-192.624)">
			<title>Rectangle.3</title>
			<desc>NATS Server 3rd Party App</desc>
			<v:userDefs>
				<v:ud v:nameU="visVersion" v:val="VT0(15):26"/>
				<v:ud v:nameU="visMasterStencil" v:prompt="" v:val="VT4(Basic_U.vssx)"/>
			</v:userDefs>
			<v:textBlock v:margins="rect(4,4,4,4)"/>
			<v:textRect cx="54" cy="294.553" width="108" height="72"/>
			<rect x="0" y="258.553" width="108" height="72" class="st4"/>
			<text x="29" y="291.55" class="st2" v:langID="1033"><v:paragraph v:horizAlign="1"/><v:tabList/>NATS Server<v:lf/><tspan
						x="27.56" dy="1.2em" class="st3">3</tspan><tspan dy="-0.234em" class="st5" v:baseFontSize="10">rd</tspan><tspan
						dy="0.152em" class="st3"> </tspan>Party App</text>		</g>
		<g id="shape4-15" v:mID="4" v:groupContext="shape" v:layerMember="0" transform="translate(555.85,-228.624)">
			<title>Dynamic connector</title>
			<path d="M0 330.55 C35.61 330.55 93.16 330.55 119.71 347.3 C139.78 359.96 142.14 382.19 142.41 400.46 L142.42 400.82"
					class="st6"/>
		</g>
		<g id="shape5-21" v:mID="5" v:groupContext="shape" v:layerMember="0" transform="translate(315.25,-151.824)">
			<title>Dynamic connector.5</title>
			<path d="M0 330.55 C0 204.25 47.35 174.98 98.66 177.7 C135.06 179.62 173.45 197.64 183.86 211.27 L184 211.6"
					class="st6"/>
		</g>
		<g id="shape6-26" v:mID="6" v:groupContext="shape" transform="translate(18.25,-79.8242)">
			<title>Rectangle.9</title>
			<desc>Web UI Vue 3 App</desc>
			<v:userDefs>
				<v:ud v:nameU="visVersion" v:val="VT0(15):26"/>
				<v:ud v:nameU="visMasterStencil" v:prompt="" v:val="VT4(Basic_U.vssx)"/>
			</v:userDefs>
			<v:textBlock v:margins="rect(4,4,4,4)"/>
			<v:textRect cx="54" cy="294.553" width="108" height="72"/>
			<rect x="0" y="258.553" width="108" height="72" class="st1"/>
			<text x="38.84" y="291.55" class="st2" v:langID="1033"><v:paragraph v:horizAlign="1"/><v:tabList/>Web UI<v:lf/><tspan
						x="33.11" dy="1.2em" class="st3">Vue 3 App</tspan></text>		</g>
		<g id="shape7-30" v:mID="7" v:groupContext="shape" v:layerMember="0" transform="translate(126.25,-106.824)">
			<title>Dynamic connector.10</title>
			<path d="M0 321.55 L127.96 321.55" class="st8"/>
		</g>
		<g id="shape8-36" v:mID="8" v:groupContext="shape" transform="translate(153.25,-127.397)">
			<title>Circle</title>
			<desc>1</desc>
			<v:userDefs>
				<v:ud v:nameU="visVersion" v:val="VT0(15):26"/>
				<v:ud v:nameU="visMasterStencil" v:prompt="" v:val="VT4(Basic_U.vssx)"/>
			</v:userDefs>
			<v:textBlock v:margins="rect(4,4,4,4)"/>
			<v:textRect cx="12.3" cy="318.253" width="21.53" height="18.45"/>
			<path d="M0 318.25 A12.3 12.3 0 1 1 24.6 318.25 A12.3 12.3 0 0 1 0 318.25 Z" class="st9"/>
			<text x="9.77" y="321.25" class="st2" v:langID="1033"><v:paragraph v:horizAlign="1"/><v:tabList/>1</text>		</g>
		<g id="shape9-39" v:mID="9" v:groupContext="shape" transform="translate(179.45,-129.697)">
			<title>Sheet.9</title>
			<desc>“Get Time” HTTP GET request</desc>
			<v:textBlock v:margins="rect(4,4,4,4)"/>
			<v:textRect cx="32.15" cy="320.553" width="64.31" height="20"/>
			<rect x="0" y="310.553" width="64.3" height="20" class="st10"/>
			<text x="4" y="311.55" class="st11" v:langID="1033"><v:paragraph/><v:tabList/>“Get Time”  <tspan x="4" dy="1.2em"
						class="st3">HTTP GET </tspan><tspan x="4" dy="1.2em" class="st3">request</tspan></text>		</g>
		<g id="shape10-44" v:mID="10" v:groupContext="shape" transform="translate(299.65,-256.624)">
			<title>Circle.10</title>
			<desc>2</desc>
			<v:userDefs>
				<v:ud v:nameU="visVersion" v:val="VT0(15):26"/>
				<v:ud v:nameU="visMasterStencil" v:prompt="" v:val="VT4(Basic_U.vssx)"/>
			</v:userDefs>
			<v:textBlock v:margins="rect(4,4,4,4)"/>
			<v:textRect cx="12.3" cy="318.253" width="21.53" height="18.45"/>
			<path d="M0 318.25 A12.3 12.3 0 1 1 24.6 318.25 A12.3 12.3 0 0 1 0 318.25 Z" class="st9"/>
			<text x="9.77" y="321.25" class="st2" v:langID="1033"><v:paragraph v:horizAlign="1"/><v:tabList/>2</text>		</g>
		<g id="shape11-47" v:mID="11" v:groupContext="shape" transform="translate(252.8,-251.024)">
			<title>Sheet.11</title>
			<desc>“Get Time” NATS Request</desc>
			<v:textBlock v:margins="rect(4,4,4,4)"/>
			<v:textRect cx="32.15" cy="312.653" width="64.31" height="35.8"/>
			<rect x="0" y="294.753" width="64.3" height="35.8" class="st10"/>
			<text x="4" y="303.65" class="st11" v:langID="1033"><v:paragraph/><v:tabList/>“Get Time” <tspan x="4" dy="1.2em"
						class="st3">NATS </tspan><tspan x="4" dy="1.2em" class="st3">Request</tspan></text>		</g>
		<g id="shape12-52" v:mID="12" v:groupContext="shape" transform="translate(609.6,-243.074)">
			<title>Circle.12</title>
			<desc>3</desc>
			<v:userDefs>
				<v:ud v:nameU="visVersion" v:val="VT0(15):26"/>
				<v:ud v:nameU="visMasterStencil" v:prompt="" v:val="VT4(Basic_U.vssx)"/>
			</v:userDefs>
			<v:textBlock v:margins="rect(4,4,4,4)"/>
			<v:textRect cx="12.3" cy="318.253" width="21.53" height="18.45"/>
			<path d="M0 318.25 A12.3 12.3 0 1 1 24.6 318.25 A12.3 12.3 0 0 1 0 318.25 Z" class="st9"/>
			<text x="9.77" y="321.25" class="st2" v:langID="1033"><v:paragraph v:horizAlign="1"/><v:tabList/>3</text>		</g>
		<g id="shape13-55" v:mID="13" v:groupContext="shape" transform="translate(635.7,-228.424)">
			<title>Sheet.13</title>
			<desc>“Get Time” NATS Subscribe Handler</desc>
			<v:textBlock v:margins="rect(4,4,4,4)"/>
			<v:textRect cx="32.15" cy="303.603" width="64.31" height="53.9"/>
			<rect x="0" y="276.653" width="64.3" height="53.9" class="st10"/>
			<text x="4" y="288.6" class="st11" v:langID="1033"><v:paragraph/><v:tabList/>“Get Time” <tspan x="4" dy="1.2em"
						class="st3">NATS </tspan><tspan x="4" dy="1.2em" class="st3">Subscribe </tspan><tspan x="4" dy="1.2em"
						class="st3">Handler</tspan></text>		</g>
		<g id="shape14-61" v:mID="14" v:groupContext="shape" transform="translate(659.175,-44.7741)">
			<title>Circle.14</title>
			<desc>4</desc>
			<v:userDefs>
				<v:ud v:nameU="visVersion" v:val="VT0(15):26"/>
				<v:ud v:nameU="visMasterStencil" v:prompt="" v:val="VT4(Basic_U.vssx)"/>
			</v:userDefs>
			<v:textBlock v:margins="rect(4,4,4,4)"/>
			<v:textRect cx="12.3" cy="318.253" width="21.53" height="18.45"/>
			<path d="M0 318.25 A12.3 12.3 0 1 1 24.6 318.25 A12.3 12.3 0 0 1 0 318.25 Z" class="st9"/>
			<text x="9.77" y="321.25" class="st2" v:langID="1033"><v:paragraph v:horizAlign="1"/><v:tabList/>4</text>		</g>
		<g id="shape15-64" v:mID="15" v:groupContext="shape" transform="translate(685.525,-39.1741)">
			<title>Sheet.15</title>
			<desc>Get Current Time</desc>
			<v:textBlock v:margins="rect(4,4,4,4)"/>
			<v:textRect cx="32.15" cy="312.653" width="64.31" height="35.8"/>
			<rect x="0" y="294.753" width="64.3" height="35.8" class="st10"/>
			<text x="4" y="309.65" class="st11" v:langID="1033"><v:paragraph/><v:tabList/>Get Current <tspan x="4" dy="1.2em"
						class="st3">Time</tspan></text>		</g>
		<g id="shape16-68" v:mID="16" v:groupContext="shape" v:layerMember="0" transform="translate(644.3,-115.674)">
			<title>Dynamic connector.16</title>
			<path d="M0 330.55 C-35.61 330.55 -93.16 330.55 -119.71 313.81 C-139.78 301.15 -142.14 278.92 -142.41 260.64 L-142.42
						 260.28" class="st6"/>
		</g>
		<g id="shape17-73" v:mID="17" v:groupContext="shape" transform="translate(546.675,-130.524)">
			<title>Circle.17</title>
			<desc>5</desc>
			<v:userDefs>
				<v:ud v:nameU="visVersion" v:val="VT0(15):26"/>
				<v:ud v:nameU="visMasterStencil" v:prompt="" v:val="VT4(Basic_U.vssx)"/>
			</v:userDefs>
			<v:textBlock v:margins="rect(4,4,4,4)"/>
			<v:textRect cx="12.3" cy="318.253" width="21.53" height="18.45"/>
			<path d="M0 318.25 A12.3 12.3 0 1 1 24.6 318.25 A12.3 12.3 0 0 1 0 318.25 Z" class="st9"/>
			<text x="9.77" y="321.25" class="st2" v:langID="1033"><v:paragraph v:horizAlign="1"/><v:tabList/>5</text>		</g>
		<g id="shape18-76" v:mID="18" v:groupContext="shape" transform="translate(573.025,-124.924)">
			<title>Sheet.18</title>
			<desc>Publish “Get Time” NATS Reply</desc>
			<v:textBlock v:margins="rect(4,4,4,4)"/>
			<v:textRect cx="32.15" cy="312.653" width="64.31" height="35.8"/>
			<rect x="0" y="294.753" width="64.3" height="35.8" class="st10"/>
			<text x="4" y="303.65" class="st11" v:langID="1033"><v:paragraph/><v:tabList/>Publish “Get <tspan x="4" dy="1.2em"
						class="st3">Time</tspan>” NATS <tspan x="4" dy="1.2em" class="st3">Reply</tspan></text>		</g>
		<g id="shape19-81" v:mID="19" v:groupContext="shape" v:layerMember="0" transform="translate(447.85,-228.624)">
			<title>Dynamic connector.19</title>
			<path d="M0 330.55 C-33.6 344.35 -18.18 362.58 -13.27 388.03 C-8.75 411.48 -13.15 441.05 -71.56 443.23 L-71.92 443.23"
					class="st6"/>
		</g>
		<g id="shape20-86" v:mID="20" v:groupContext="shape" transform="translate(401.225,-171.224)">
			<title>Circle.20</title>
			<desc>6</desc>
			<v:userDefs>
				<v:ud v:nameU="visVersion" v:val="VT0(15):26"/>
				<v:ud v:nameU="visMasterStencil" v:prompt="" v:val="VT4(Basic_U.vssx)"/>
			</v:userDefs>
			<v:textBlock v:margins="rect(4,4,4,4)"/>
			<v:textRect cx="12.3" cy="318.253" width="21.53" height="18.45"/>
			<path d="M0 318.25 A12.3 12.3 0 1 1 24.6 318.25 A12.3 12.3 0 0 1 0 318.25 Z" class="st9"/>
			<text x="9.77" y="321.25" class="st2" v:langID="1033"><v:paragraph v:horizAlign="1"/><v:tabList/>6</text>		</g>
		<g id="shape21-89" v:mID="21" v:groupContext="shape" transform="translate(348.675,-165.624)">
			<title>Sheet.21</title>
			<desc>“Get Time” NATS Reply</desc>
			<v:textBlock v:margins="rect(4,4,4,4)"/>
			<v:textRect cx="32.15" cy="312.653" width="64.31" height="35.8"/>
			<rect x="0" y="294.753" width="64.3" height="35.8" class="st10"/>
			<text x="4" y="309.65" class="st11" v:langID="1033"><v:paragraph/><v:tabList/>“Get Time” <tspan x="4" dy="1.2em"
						class="st3">NATS Reply</tspan></text>		</g>
		<g id="shape22-93" v:mID="22" v:groupContext="shape" v:layerMember="0" transform="translate(315.25,-70.8242)">
			<title>Dynamic connector.22</title>
			<path d="M0 321.55 C-9 353.05 -68.52 377.09 -128.04 375.51 C-180.57 374.11 -233.1 352.76 -241.76 328.48 L-241.82 328.13"
					class="st6"/>
		</g>
		<g id="shape23-98" v:mID="23" v:groupContext="shape" transform="translate(162,-43.8242)">
			<title>Circle.23</title>
			<desc>7</desc>
			<v:userDefs>
				<v:ud v:nameU="visVersion" v:val="VT0(15):26"/>
				<v:ud v:nameU="visMasterStencil" v:prompt="" v:val="VT4(Basic_U.vssx)"/>
			</v:userDefs>
			<v:textBlock v:margins="rect(4,4,4,4)"/>
			<v:textRect cx="12.3" cy="318.253" width="21.53" height="18.45"/>
			<path d="M0 318.25 A12.3 12.3 0 1 1 24.6 318.25 A12.3 12.3 0 0 1 0 318.25 Z" class="st9"/>
			<text x="9.77" y="321.25" class="st2" v:langID="1033"><v:paragraph v:horizAlign="1"/><v:tabList/>7</text>		</g>
		<g id="shape24-101" v:mID="24" v:groupContext="shape" transform="translate(188.2,-46.1242)">
			<title>Sheet.24</title>
			<desc>“Get Time” HTTP GET resonse</desc>
			<v:textBlock v:margins="rect(4,4,4,4)"/>
			<v:textRect cx="32.15" cy="320.553" width="64.31" height="20"/>
			<rect x="0" y="310.553" width="64.3" height="20" class="st10"/>
			<text x="4" y="311.55" class="st11" v:langID="1033"><v:paragraph/><v:tabList/>“Get Time”  <tspan x="4" dy="1.2em"
						class="st3">HTTP GET </tspan><tspan x="4" dy="1.2em" class="st3">resonse</tspan></text>		</g>
		<g id="shape25-106" v:mID="25" v:groupContext="shape" transform="translate(44.35,-157.797)">
			<title>Circle.25</title>
			<desc>8</desc>
			<v:userDefs>
				<v:ud v:nameU="visVersion" v:val="VT0(15):26"/>
				<v:ud v:nameU="visMasterStencil" v:prompt="" v:val="VT4(Basic_U.vssx)"/>
			</v:userDefs>
			<v:textBlock v:margins="rect(4,4,4,4)"/>
			<v:textRect cx="12.3" cy="318.253" width="21.53" height="18.45"/>
			<path d="M0 318.25 A12.3 12.3 0 1 1 24.6 318.25 A12.3 12.3 0 0 1 0 318.25 Z" class="st9"/>
			<text x="9.77" y="321.25" class="st2" v:langID="1033"><v:paragraph v:horizAlign="1"/><v:tabList/>8</text>		</g>
		<g id="shape26-109" v:mID="26" v:groupContext="shape" transform="translate(70.7,-152.197)">
			<title>Sheet.26</title>
			<desc>Visualize Time</desc>
			<v:textBlock v:margins="rect(4,4,4,4)"/>
			<v:textRect cx="32.15" cy="312.653" width="64.31" height="35.8"/>
			<rect x="0" y="294.753" width="64.3" height="35.8" class="st10"/>
			<text x="4" y="309.65" class="st11" v:langID="1033"><v:paragraph/><v:tabList/>Visualize <tspan x="4" dy="1.2em"
						class="st3">Time</tspan></text>		</g>
	</g>
</svg>
