<?xml version="1.0" encoding="UTF-8" standalone="no"?>
<!DOCTYPE svg PUBLIC "-//W3C//DTD SVG 1.1//EN" "http://www.w3.org/Graphics/SVG/1.1/DTD/svg11.dtd">
<!-- Generated by Microsoft Visio, SVG Export TimeEvent.svg Time Event -->
<svg xmlns="http://www.w3.org/2000/svg" xmlns:xlink="http://www.w3.org/1999/xlink" xmlns:ev="http://www.w3.org/2001/xml-events"
		xmlns:v="http://schemas.microsoft.com/visio/2003/SVGExtensions/" width="10.7436in" height="4.07429in"
		viewBox="0 0 773.538 293.349" xml:space="preserve" color-interpolation-filters="sRGB" class="st13">
	<v:documentProperties v:langID="1033" v:viewMarkup="false">
		<v:userDefs>
			<v:ud v:nameU="msvSubprocessMaster" v:prompt="" v:val="VT4(Rectangle)"/>
			<v:ud v:nameU="msvNoAutoConnect" v:val="VT0(1):26"/>
		</v:userDefs>
	</v:documentProperties>

	<style type="text/css">
	<![CDATA[
		.st1 {fill:#4672c4;stroke:#c7c8c8;stroke-width:0.25}
		.st2 {fill:#feffff;font-family:Calibri;font-size:0.833336em}
		.st3 {font-size:1em}
		.st4 {fill:#70ad47;stroke:#c7c8c8;stroke-width:0.25}
		.st5 {baseline-shift:32.4947%;font-size:0.649894em}
		.st6 {marker-end:url(#mrkr4-24);stroke:#4672c4;stroke-linecap:round;stroke-linejoin:round;stroke-width:1}
		.st7 {fill:#4672c4;fill-opacity:1;stroke:#4672c4;stroke-opacity:1;stroke-width:0.28409090909091}
		.st8 {fill:url(#grad0-28);stroke:#ae5a21;stroke-width:0.75}
		.st9 {fill:none;stroke:none;stroke-width:0.25}
		.st10 {fill:#4672c4;font-family:Calibri;font-size:0.833336em}
		.st11 {fill:#fec000;stroke:#c7c8c8;stroke-width:0.25}
		.st12 {marker-end:url(#mrkr4-60);stroke:#4672c4;stroke-linecap:round;stroke-linejoin:round;stroke-width:1}
		.st13 {fill:none;fill-rule:evenodd;font-size:12px;overflow:visible;stroke-linecap:square;stroke-miterlimit:3}
	]]>
	</style>

	<defs id="Patterns_And_Gradients">
		<linearGradient id="grad0-28" x1="0" y1="0" x2="1" y2="0" gradientTransform="rotate(250 0.5 0.5)">
			<stop offset="0" stop-color="#d06d29" stop-opacity="1"/>
			<stop offset="0.48" stop-color="#d06d29" stop-opacity="1"/>
			<stop offset="0.82" stop-color="#ed7d31" stop-opacity="1"/>
		</linearGradient>
	</defs>
	<defs id="Markers">
		<g id="lend4">
			<path d="M 2 1 L 0 0 L 2 -1 L 2 1 " style="stroke:none"/>
		</g>
		<marker id="mrkr4-24" class="st7" v:arrowType="4" v:arrowSize="2" v:setback="7.04" refX="-7.04" orient="auto"
				markerUnits="strokeWidth" overflow="visible">
			<use xlink:href="#lend4" transform="scale(-3.52,-3.52) "/>
		</marker>
		<marker id="mrkr4-60" class="st7" v:arrowType="4" v:arrowSize="2" v:setback="6.68" refX="-6.68" orient="auto"
				markerUnits="strokeWidth" overflow="visible">
			<use xlink:href="#lend4" transform="scale(-3.52,-3.52) "/>
		</marker>
	</defs>
	<g v:mID="5" v:index="3" v:groupContext="foregroundPage">
		<v:userDefs>
			<v:ud v:nameU="msvThemeOrder" v:val="VT0(0):26"/>
		</v:userDefs>
		<title>Time Event</title>
		<v:pageProperties v:drawingScale="1" v:pageScale="1" v:drawingUnits="0" v:shadowOffsetX="9" v:shadowOffsetY="-9"/>
		<v:layer v:name="Connector" v:index="0"/>
		<g id="shape1-1" v:mID="1" v:groupContext="shape" transform="translate(644.3,-80.6771)">
			<title>Rectangle</title>
			<desc>Backend Service Go App</desc>
			<v:userDefs>
				<v:ud v:nameU="visVersion" v:val="VT0(15):26"/>
				<v:ud v:nameU="visMasterStencil" v:prompt="" v:val="VT4(Basic_U.vssx)"/>
			</v:userDefs>
			<v:textBlock v:margins="rect(4,4,4,4)"/>
			<v:textRect cx="54" cy="257.349" width="108" height="72"/>
			<rect x="0" y="221.349" width="108" height="72" class="st1"/>
			<text x="21.09" y="254.35" class="st2" v:langID="1033"><v:paragraph v:horizAlign="1"/><v:tabList/>Backend Service<v:lf/><tspan
						x="38.93" dy="1.2em" class="st3">Go App</tspan></text>		</g>
		<g id="shape2-5" v:mID="2" v:groupContext="shape" transform="translate(261.25,-80.8272)">
			<title>Rectangle.2</title>
			<desc>Frontend Service Go App</desc>
			<v:userDefs>
				<v:ud v:nameU="visVersion" v:val="VT0(15):26"/>
				<v:ud v:nameU="visMasterStencil" v:prompt="" v:val="VT4(Basic_U.vssx)"/>
			</v:userDefs>
			<v:textBlock v:margins="rect(4,4,4,4)"/>
			<v:textRect cx="54" cy="257.349" width="108" height="72"/>
			<rect x="0" y="221.349" width="108" height="72" class="st1"/>
			<text x="19.61" y="254.35" class="st2" v:langID="1033"><v:paragraph v:horizAlign="1"/><v:tabList/>Frontend Service<v:lf/><tspan
						x="38.93" dy="1.2em" class="st3">Go App</tspan></text>		</g>
		<g id="shape3-9" v:mID="3" v:groupContext="shape" transform="translate(447.85,-193.627)">
			<title>Rectangle.3</title>
			<desc>NATS Server 3rd Party App</desc>
			<v:userDefs>
				<v:ud v:nameU="visVersion" v:val="VT0(15):26"/>
				<v:ud v:nameU="visMasterStencil" v:prompt="" v:val="VT4(Basic_U.vssx)"/>
			</v:userDefs>
			<v:textBlock v:margins="rect(4,4,4,4)"/>
			<v:textRect cx="54" cy="257.349" width="108" height="72"/>
			<rect x="0" y="221.349" width="108" height="72" class="st4"/>
			<text x="29" y="254.35" class="st2" v:langID="1033"><v:paragraph v:horizAlign="1"/><v:tabList/>NATS Server<v:lf/><tspan
						x="27.56" dy="1.2em" class="st3">3</tspan><tspan dy="-0.234em" class="st5" v:baseFontSize="10">rd</tspan><tspan
						dy="0.152em" class="st3"> </tspan>Party App</text>		</g>
		<g id="shape6-15" v:mID="6" v:groupContext="shape" transform="translate(18.25,-80.8272)">
			<title>Rectangle.9</title>
			<desc>Web UI Vue 3 App</desc>
			<v:userDefs>
				<v:ud v:nameU="visVersion" v:val="VT0(15):26"/>
				<v:ud v:nameU="visMasterStencil" v:prompt="" v:val="VT4(Basic_U.vssx)"/>
			</v:userDefs>
			<v:textBlock v:margins="rect(4,4,4,4)"/>
			<v:textRect cx="54" cy="257.349" width="108" height="72"/>
			<rect x="0" y="221.349" width="108" height="72" class="st1"/>
			<text x="38.84" y="254.35" class="st2" v:langID="1033"><v:paragraph v:horizAlign="1"/><v:tabList/>Web UI<v:lf/><tspan
						x="33.11" dy="1.2em" class="st3">Vue 3 App</tspan></text>		</g>
		<g id="shape7-19" v:mID="7" v:groupContext="shape" v:layerMember="0" transform="translate(126.25,-107.827)">
			<title>Dynamic connector.10</title>
			<path d="M0 284.35 L127.96 284.35" class="st6"/>
		</g>
		<g id="shape8-25" v:mID="8" v:groupContext="shape" transform="translate(152.507,-145.949)">
			<title>Circle</title>
			<desc>1</desc>
			<v:userDefs>
				<v:ud v:nameU="visVersion" v:val="VT0(15):26"/>
				<v:ud v:nameU="visMasterStencil" v:prompt="" v:val="VT4(Basic_U.vssx)"/>
			</v:userDefs>
			<v:textBlock v:margins="rect(4,4,4,4)"/>
			<v:textRect cx="12.3" cy="281.049" width="21.53" height="18.45"/>
			<path d="M0 281.05 A12.3 12.3 0 1 1 24.6 281.05 A12.3 12.3 0 0 1 0 281.05 Z" class="st8"/>
			<text x="9.77" y="284.05" class="st2" v:langID="1033"><v:paragraph v:horizAlign="1"/><v:tabList/>1</text>		</g>
		<g id="shape9-30" v:mID="9" v:groupContext="shape" transform="translate(180,-122.249)">
			<title>Sheet.9</title>
			<desc>“Time Event” HTTP GET event stream request (keep-alive connec...</desc>
			<v:textBlock v:margins="rect(4,4,4,4)"/>
			<v:textRect cx="32.15" cy="257.349" width="64.31" height="72"/>
			<rect x="0" y="221.349" width="64.3" height="72" class="st9"/>
			<text x="4" y="230.35" class="st10" v:langID="1033"><v:paragraph/><v:tabList/>“Time Event”  <tspan x="4" dy="1.2em"
						class="st3">HTTP GET </tspan><tspan x="4" dy="1.2em" class="st3">event stream </tspan><tspan x="4"
						dy="1.2em" class="st3">request </tspan><tspan x="4" dy="1.2em" class="st3">(keep</tspan>-alive <tspan x="4"
						dy="1.2em" class="st3">connection) </tspan> </text>		</g>
		<g id="shape12-38" v:mID="12" v:groupContext="shape" transform="translate(274.507,-226.949)">
			<title>Circle.12</title>
			<desc>3</desc>
			<v:userDefs>
				<v:ud v:nameU="visVersion" v:val="VT0(15):26"/>
				<v:ud v:nameU="visMasterStencil" v:prompt="" v:val="VT4(Basic_U.vssx)"/>
			</v:userDefs>
			<v:textBlock v:margins="rect(4,4,4,4)"/>
			<v:textRect cx="12.3" cy="281.049" width="21.53" height="18.45"/>
			<path d="M0 281.05 A12.3 12.3 0 1 1 24.6 281.05 A12.3 12.3 0 0 1 0 281.05 Z" class="st11"/>
			<text x="9.77" y="284.05" class="st2" v:langID="1033"><v:paragraph v:horizAlign="1"/><v:tabList/>3</text>		</g>
		<g id="shape13-41" v:mID="13" v:groupContext="shape" transform="translate(300.607,-212.299)">
			<title>Sheet.13</title>
			<desc>“Time Event” NATS Subscribe Handler</desc>
			<v:textBlock v:margins="rect(4,4,4,4)"/>
			<v:textRect cx="32.15" cy="266.399" width="64.31" height="53.9"/>
			<rect x="0" y="239.449" width="64.3" height="53.9" class="st9"/>
			<text x="4" y="251.4" class="st10" v:langID="1033"><v:paragraph/><v:tabList/>“Time Event” <tspan x="4" dy="1.2em"
						class="st3">NATS </tspan><tspan x="4" dy="1.2em" class="st3">Subscribe </tspan><tspan x="4" dy="1.2em"
						class="st3">Handler</tspan></text>		</g>
		<g id="shape14-47" v:mID="14" v:groupContext="shape" transform="translate(659.175,-37.9992)">
			<title>Circle.14</title>
			<desc>1</desc>
			<v:userDefs>
				<v:ud v:nameU="visVersion" v:val="VT0(15):26"/>
				<v:ud v:nameU="visMasterStencil" v:prompt="" v:val="VT4(Basic_U.vssx)"/>
			</v:userDefs>
			<v:textBlock v:margins="rect(4,4,4,4)"/>
			<v:textRect cx="12.3" cy="281.049" width="21.53" height="18.45"/>
			<path d="M0 281.05 A12.3 12.3 0 1 1 24.6 281.05 A12.3 12.3 0 0 1 0 281.05 Z" class="st11"/>
			<text x="9.77" y="284.05" class="st2" v:langID="1033"><v:paragraph v:horizAlign="1"/><v:tabList/>1</text>		</g>
		<g id="shape15-50" v:mID="15" v:groupContext="shape" transform="translate(685.525,-32.3992)">
			<title>Sheet.15</title>
			<desc>Create “Time Event” every 5 sec</desc>
			<v:textBlock v:margins="rect(4,4,4,4)"/>
			<v:textRect cx="32.15" cy="275.449" width="64.31" height="35.8"/>
			<rect x="0" y="257.549" width="64.3" height="35.8" class="st9"/>
			<text x="4" y="266.45" class="st10" v:langID="1033"><v:paragraph/><v:tabList/>Create “Time <tspan x="4" dy="1.2em"
						class="st3">Event</tspan>” every <tspan x="4" dy="1.2em" class="st3">5 sec</tspan></text>		</g>
		<g id="shape16-55" v:mID="16" v:groupContext="shape" v:layerMember="0" transform="translate(698.3,-152.677)">
			<title>Dynamic connector.16</title>
			<path d="M0 293.35 C-0 274.11 0 247.48 -22.74 233.14 C-47.61 217.46 -99.65 216.47 -135.41 216.4 L-135.77 216.4"
					class="st12"/>
		</g>
		<g id="shape17-61" v:mID="17" v:groupContext="shape" transform="translate(661.907,-235.849)">
			<title>Circle.17</title>
			<desc>2</desc>
			<v:userDefs>
				<v:ud v:nameU="visVersion" v:val="VT0(15):26"/>
				<v:ud v:nameU="visMasterStencil" v:prompt="" v:val="VT4(Basic_U.vssx)"/>
			</v:userDefs>
			<v:textBlock v:margins="rect(4,4,4,4)"/>
			<v:textRect cx="12.3" cy="281.049" width="21.53" height="18.45"/>
			<path d="M0 281.05 A12.3 12.3 0 1 1 24.6 281.05 A12.3 12.3 0 0 1 0 281.05 Z" class="st11"/>
			<text x="9.77" y="284.05" class="st2" v:langID="1033"><v:paragraph v:horizAlign="1"/><v:tabList/>2</text>		</g>
		<g id="shape18-64" v:mID="18" v:groupContext="shape" transform="translate(690.988,-221.199)">
			<title>Sheet.18</title>
			<desc>Publish “Time Event” through NATS</desc>
			<v:textBlock v:margins="rect(4,4,4,4)"/>
			<v:textRect cx="32.15" cy="266.399" width="64.31" height="53.9"/>
			<rect x="0" y="239.449" width="64.3" height="53.9" class="st9"/>
			<text x="4" y="251.4" class="st10" v:langID="1033"><v:paragraph/><v:tabList/>Publish “Time <tspan x="4" dy="1.2em"
						class="st3">Event</tspan>” <tspan x="4" dy="1.2em" class="st3">through </tspan><tspan x="4" dy="1.2em"
						class="st3">NATS </tspan> </text>		</g>
		<g id="shape22-70" v:mID="22" v:groupContext="shape" v:layerMember="0" transform="translate(315.25,-71.8272)">
			<title>Dynamic connector.22</title>
			<path d="M0 284.35 C-9 315.85 -68.52 339.89 -128.04 338.3 C-180.57 336.9 -233.1 315.55 -241.76 291.28 L-241.82 290.92"
					class="st12"/>
		</g>
		<g id="shape23-75" v:mID="23" v:groupContext="shape" transform="translate(162,-44.8272)">
			<title>Circle.23</title>
			<desc>4</desc>
			<v:userDefs>
				<v:ud v:nameU="visVersion" v:val="VT0(15):26"/>
				<v:ud v:nameU="visMasterStencil" v:prompt="" v:val="VT4(Basic_U.vssx)"/>
			</v:userDefs>
			<v:textBlock v:margins="rect(4,4,4,4)"/>
			<v:textRect cx="12.3" cy="281.049" width="21.53" height="18.45"/>
			<path d="M0 281.05 A12.3 12.3 0 1 1 24.6 281.05 A12.3 12.3 0 0 1 0 281.05 Z" class="st11"/>
			<text x="9.77" y="284.05" class="st2" v:langID="1033"><v:paragraph v:horizAlign="1"/><v:tabList/>4</text>		</g>
		<g id="shape24-78" v:mID="24" v:groupContext="shape" transform="translate(188.2,-47.1272)">
			<title>Sheet.24</title>
			<desc>“Time Event” SSE event push</desc>
			<v:textBlock v:margins="rect(4,4,4,4)"/>
			<v:textRect cx="32.15" cy="283.349" width="64.31" height="20"/>
			<rect x="0" y="273.349" width="64.3" height="20" class="st9"/>
			<text x="4" y="274.35" class="st10" v:langID="1033"><v:paragraph/><v:tabList/>“Time Event”  <tspan x="4" dy="1.2em"
						class="st3">SSE event </tspan><tspan x="4" dy="1.2em" class="st3">push</tspan></text>		</g>
		<g id="shape26-83" v:mID="26" v:groupContext="shape" v:layerMember="0" transform="translate(447.85,-229.627)">
			<title>Dynamic connector.26</title>
			<path d="M0 293.35 C-33.15 293.35 -86.36 293.35 -111.1 309.84 C-130.08 322.48 -132.3 344.83 -132.57 363.11 L-132.57 363.47"
					class="st12"/>
		</g>
		<g id="shape28-88" v:mID="28" v:groupContext="shape" transform="translate(44.35,-158.8)">
			<title>Circle.25</title>
			<desc>5</desc>
			<v:userDefs>
				<v:ud v:nameU="visVersion" v:val="VT0(15):26"/>
				<v:ud v:nameU="visMasterStencil" v:prompt="" v:val="VT4(Basic_U.vssx)"/>
			</v:userDefs>
			<v:textBlock v:margins="rect(4,4,4,4)"/>
			<v:textRect cx="12.3" cy="281.049" width="21.53" height="18.45"/>
			<path d="M0 281.05 A12.3 12.3 0 1 1 24.6 281.05 A12.3 12.3 0 0 1 0 281.05 Z" class="st11"/>
			<text x="9.77" y="284.05" class="st2" v:langID="1033"><v:paragraph v:horizAlign="1"/><v:tabList/>5</text>		</g>
		<g id="shape29-91" v:mID="29" v:groupContext="shape" transform="translate(70.7,-153.2)">
			<title>Sheet.29</title>
			<desc>Visualize Time</desc>
			<v:textBlock v:margins="rect(4,4,4,4)"/>
			<v:textRect cx="32.15" cy="275.449" width="64.31" height="35.8"/>
			<rect x="0" y="257.549" width="64.3" height="35.8" class="st9"/>
			<text x="4" y="272.45" class="st10" v:langID="1033"><v:paragraph/><v:tabList/>Visualize <tspan x="4" dy="1.2em"
						class="st3">Time</tspan></text>		</g>
	</g>
</svg>
